<svg width="42" height="42" viewBox="0 0 42 42" fill="none" xmlns="http://www.w3.org/2000/svg">
<circle cx="21" cy="21" r="21" fill="#F9F0E5"/>
<path d="M15.0357 15.8378C15.0357 15.5449 15.2896 15.3074 15.6029 15.3074H28.8618C29.0271 15.3074 29.1842 15.375 29.292 15.4922C29.3998 15.6094 29.4474 15.7649 29.4224 15.9177L28.856 19.3918C28.8132 19.6542 28.5715 19.8422 28.296 19.8422C28.2676 19.8422 28.2388 19.8403 28.2098 19.8361C27.9002 19.792 27.6874 19.5215 27.7346 19.2319L28.2016 16.3681H15.6029C15.2896 16.3681 15.0357 16.1306 15.0357 15.8378ZM19.3416 24.8787H14.3153L12.2198 13.4408C12.1732 13.1861 11.9371 13 11.6608 13H8.56714C8.25389 13 8 13.2374 8 13.5303C8 13.8232 8.25389 14.0606 8.56714 14.0606H11.1826L13.2781 25.4986C13.3254 25.757 13.5652 25.9394 13.8364 25.9394C13.8682 25.9394 13.9005 25.9369 13.9328 25.9317C13.9351 25.9313 13.9373 25.931 13.9396 25.9306C13.973 25.9363 14.0074 25.9393 14.0426 25.9393H19.3416C19.6548 25.9393 19.9087 25.7019 19.9087 25.4089C19.9087 25.116 19.6548 24.8787 19.3416 24.8787ZM18.2453 28.6316V29.5726C18.2453 30.4572 17.4757 31.1769 16.5297 31.1769C15.5837 31.1769 14.8141 30.4572 14.8141 29.5726V28.6316C14.8141 27.747 15.5837 27.0273 16.5296 27.0273C17.4757 27.0273 18.2453 27.747 18.2453 28.6316ZM17.1111 28.6316C17.1111 28.3318 16.8503 28.088 16.5297 28.088H16.5296C16.2092 28.088 15.9484 28.3318 15.9484 28.6316V29.5726C15.9484 29.8723 16.2092 30.1162 16.5296 30.1162C16.8502 30.1162 17.1111 29.8723 17.1111 29.5726V28.6316ZM32.9216 23.6853C32.5869 26.1994 31.2253 28.4412 29.0873 29.9976C27.2881 31.3075 25.1203 32 22.8761 32C22.4536 32 22.0285 31.9754 21.6025 31.9258C21.2462 31.8843 20.887 31.8241 20.5346 31.7471C20.2981 31.6954 20.123 31.5086 20.0992 31.2826C20.0257 30.5828 20.0356 29.8728 20.1288 29.1724C20.8199 23.9824 25.8978 20.2853 31.4481 20.9317C31.8048 20.9733 32.164 21.0335 32.516 21.1104C32.7524 21.1622 32.9274 21.3488 32.9512 21.5748C33.025 22.2742 33.015 22.9843 32.9216 23.6853ZM31.8534 22.0639C31.6718 22.0321 31.4893 22.0055 31.3077 21.9843C26.3785 21.4106 21.8682 24.6938 21.2544 29.3035C21.2193 29.5665 21.1976 29.8308 21.1889 30.0954L26.3774 25.8448C26.6129 25.6518 26.9713 25.6738 27.1777 25.8942C27.3841 26.1145 27.3605 26.4496 27.1249 26.6425L21.9354 30.8939C24.2574 31.118 26.5426 30.5058 28.3904 29.1606C30.2892 27.7783 31.4987 25.7871 31.7959 23.5542C31.862 23.0594 31.8811 22.5597 31.8534 22.0639Z" fill="#01005B" stroke="#01005B" stroke-width="0.6"/>
</svg>
