<svg width="84" height="10" viewBox="0 0 84 10" fill="none" xmlns="http://www.w3.org/2000/svg">
<path d="M3.18 0.12C2.01 0.12 0.56 0.72 0.56 2.1C0.56 3.31 1.56 3.86 2.55 4.08L3.45 4.27C4.36 4.47 5.01 4.79 5.01 5.55C5.01 6.26 4.39 6.77 3.32 6.77C2.21 6.77 1.51 6.25 1.32 5.25H0.32C0.51 6.7 1.59 7.63 3.3 7.63C4.74 7.63 6.06 6.88 6.06 5.46C6.06 4 4.73 3.58 3.62 3.34L2.78 3.15C2.11 3 1.6 2.68 1.6 2.04C1.6 1.23 2.58 0.98 3.14 0.98C3.87 0.98 4.69 1.26 4.94 2.1H5.93C5.65 0.7 4.48 0.12 3.18 0.12ZM8.43625 2.93V0.25H7.52625V7.5H8.43625V4.58C8.43625 3.43 8.97625 2.82 9.85625 2.82C10.8963 2.82 11.0363 3.54 11.0363 4.37V7.5H11.9463V4.1C11.9463 2.87 11.4763 2.03 10.1763 2.03C9.26625 2.03 8.74625 2.42 8.43625 2.93ZM14.6175 0.25H13.7075V1.35H14.6175V0.25ZM14.6175 2.12H13.7075V7.5H14.6175V2.12ZM17.371 2.12H16.461V9.25H17.371V6.69C17.701 7.26 18.271 7.63 19.131 7.63C20.361 7.63 21.431 6.61 21.431 4.83C21.431 3.06 20.361 2.03 19.131 2.03C18.271 2.03 17.701 2.4 17.371 2.97V2.12ZM18.901 6.85C18.091 6.85 17.331 6.25 17.331 4.83C17.331 3.41 18.091 2.81 18.901 2.81C19.831 2.81 20.441 3.55 20.441 4.83C20.441 6.11 19.831 6.85 18.901 6.85ZM25.9762 3.69H26.9262C26.7562 2.67 25.9662 2.02 24.8062 2.02C23.6162 2.02 22.6562 2.57 22.6562 3.52C22.6562 4.52 23.4562 4.86 24.1862 5.01L24.9862 5.17C25.5662 5.29 26.0762 5.52 26.0762 6.06C26.0762 6.56 25.5162 6.86 24.8262 6.86C24.0262 6.86 23.5962 6.45 23.4562 5.76H22.4962C22.5962 6.7 23.3962 7.63 24.8062 7.63C26.0362 7.63 26.9962 7.02 26.9962 5.96C26.9962 4.92 26.1362 4.55 25.1562 4.36L24.3962 4.21C23.8762 4.11 23.5762 3.91 23.5762 3.48C23.5762 2.99 24.1762 2.8 24.7062 2.8C25.3362 2.8 25.8362 3.05 25.9762 3.69ZM32.2331 0.25H31.3231V1.35H32.2331V0.25ZM32.2331 2.12H31.3231V7.5H32.2331V2.12ZM34.9866 2.93V2.12H34.0766V7.5H34.9866V4.58C34.9866 3.43 35.5266 2.82 36.4066 2.82C37.4466 2.82 37.5866 3.54 37.5866 4.37V7.5H38.4966V4.1C38.4966 2.87 38.0266 2.03 36.7266 2.03C35.8166 2.03 35.2966 2.42 34.9866 2.93ZM44.1109 7.5H45.0209V0.25H44.4009C44.0009 1.04 43.4709 1.17 42.4309 1.21V1.83H44.1109V7.5ZM46.8226 5.19H50.0026V4.33H46.8226V5.19ZM55.97 2.02C55.97 0.8 55.01 0.12 53.67 0.12C52.13 0.12 51.13 1.07 51.15 2.51H52.09C52.11 1.31 52.87 0.879999 53.65 0.879999C54.51 0.879999 55.01 1.39 55.01 2.14C55.01 3.42 53.51 4.79 50.95 6.68V7.5H56.17V6.65H52.19C54.22 5.19 55.97 3.7 55.97 2.02ZM62.5615 0.25H60.5815V7.5H62.5615C64.8615 7.5 66.5115 6.64 66.5115 3.87C66.5115 1.11 64.8615 0.25 62.5615 0.25ZM62.5315 1.11C64.0315 1.11 65.4715 1.41 65.4715 3.87C65.4715 6.34 64.0315 6.64 62.5315 6.64H61.6015V1.11H62.5315ZM67.6992 6.08C67.6992 7.07 68.5392 7.63 69.5492 7.63C70.4992 7.63 71.0592 7.31 71.3892 6.76C71.3992 7.08 71.4292 7.3 71.4592 7.5H72.3792C72.2792 6.99 72.2292 6.37 72.2392 5.47L72.2492 4.23C72.2592 2.72 71.5892 2.01 70.1092 2.01C69.0592 2.01 68.0392 2.66 67.9492 3.82H68.8892C68.9292 3.16 69.3692 2.75 70.1192 2.75C70.7892 2.75 71.3392 3.08 71.3392 4.06V4.19C69.1292 4.44 67.6992 4.81 67.6992 6.08ZM71.4092 4.91V5.25C71.4092 6.52 70.5992 6.91 69.7492 6.91C69.0992 6.91 68.7092 6.57 68.7092 6.06C68.7092 5.32 69.7592 5.08 71.4092 4.91ZM77.8963 2.12H76.9463L75.6163 6.27L74.2463 2.12H73.2363L75.1763 7.5L75.1363 7.61C74.8963 8.45 74.6063 8.49 74.0063 8.49H73.6363V9.25H74.1063C75.3063 9.25 75.5863 8.9 75.9763 7.73L77.8963 2.12ZM82.0652 3.69H83.0152C82.8452 2.67 82.0552 2.02 80.8952 2.02C79.7052 2.02 78.7452 2.57 78.7452 3.52C78.7452 4.52 79.5452 4.86 80.2752 5.01L81.0752 5.17C81.6552 5.29 82.1652 5.52 82.1652 6.06C82.1652 6.56 81.6052 6.86 80.9152 6.86C80.1152 6.86 79.6852 6.45 79.5452 5.76H78.5852C78.6852 6.7 79.4852 7.63 80.8952 7.63C82.1252 7.63 83.0852 7.02 83.0852 5.96C83.0852 4.92 82.2252 4.55 81.2452 4.36L80.4852 4.21C79.9652 4.11 79.6652 3.91 79.6652 3.48C79.6652 2.99 80.2652 2.8 80.7952 2.8C81.4252 2.8 81.9252 3.05 82.0652 3.69Z" fill="#1FAD40"/>
</svg>
